<?xml version="1.0" encoding="utf-8"?>
<!-- Generator: Adobe Illustrator 17.0.0, SVG Export Plug-In . SVG Version: 6.00 Build 0)  -->
<!DOCTYPE svg PUBLIC "-//W3C//DTD SVG 1.1//EN" "http://www.w3.org/Graphics/SVG/1.1/DTD/svg11.dtd">
<svg version="1.1" id="Слой_1" xmlns="http://www.w3.org/2000/svg" xmlns:xlink="http://www.w3.org/1999/xlink" x="0px" y="0px"
	 width="980px" height="173px" viewBox="0 0 980 173" enable-background="new 0 0 980 173" xml:space="preserve">
<g>
	<path fill="#FFFFFF" d="M11.157,151.354c0,1.231,0.03,2.296,0.031,3.274c0.002,2.929,0.033,5.859-0.001,8.788
		c-0.027,2.281-1.552,3.865-3.608,3.847c-2.053-0.018-3.511-1.617-3.519-3.91c-0.026-7.494-0.04-14.987-0.045-22.481
		c0-0.384-0.018-1.578,0.474-1.375c0.637,0.547,0.87,0.72,1.272,1.099c3.787,3.57,8.254,5.217,13.444,4.566
		c6.174-0.774,8.8-6.237,5.688-11.616c-3.803-6.574-13.847-10.139-20.013-5.972c-0.088,0.059-0.639,0.714-0.864,0.033
		c-0.055-0.516,0.054-13.966,0.054-20.097c0-2.457,0.011-2.476,2.389-1.86c6.501,1.685,11.732-2.786,10.45-9.136
		c-0.404-2.001-1.372-4.014-2.539-5.707c-2.065-2.997-5.01-4.987-8.62-5.775c-1.345-0.293-1.72-0.972-1.718-2.277
		C4.063,58.296,4.056,33.838,4.061,9.38c0-2.461,1.422-4.149,3.496-4.181c2.129-0.033,3.634,1.71,3.634,4.282
		c0.002,20.915-0.021,41.831,0.028,62.746c0.003,1.222,0.295,2.594,0.895,3.643c8.774,15.33,20.39,27.852,36.247,36.049
		c9.919,5.127,20.508,7.79,31.683,7.37c11.459-0.43,21.332-4.708,28.928-13.508c5.309-6.151,7.653-13.585,8.43-21.522
		c1.176-12.018-2.022-22.911-8.892-32.773C99.392,38.394,79.287,38.51,70.027,46.49c-5.996,5.166-7.236,14.017-2.589,20.432
		c2.044,2.821,4.896,4.112,8.298,3.983c5.648-0.214,11.287-0.687,16.935-0.844c2.135-0.059,4.405,0.101,6.406,0.777
		c5.485,1.852,7.183,7.075,3.789,11.764c-5.082,7.02-12.145,11.458-20.647,12.269c-15.898,1.518-30.205-2.972-40.93-15.122
		c-9.68-10.967-12.02-24.206-8.077-38.28c4.1-14.634,13.215-25.2,27.248-31.132c13.704-5.793,27.958-6.968,42.445-3.512
		c18.07,4.311,32.417,14.14,42.554,29.796c7.547,11.657,11.071,24.599,11.653,38.401c0.523,12.399-0.554,24.614-3.916,36.613
		c-4.842,17.278-13.617,31.827-28.812,41.947c-6.12,4.076-13.021,6.459-19.979,8.642c-13.279,4.166-26.91,5.627-40.763,4.915
		c-14.644-0.753-28.655-4.222-41.94-10.468c-3.009-1.415-5.307-2.489-8.261-4.023C13.439,152.649,11.255,151.389,11.157,151.354z
		 M31.259,109.889c-1.84-0.136-2.808,0.114-4.1,0.497c-4.335,1.287-6.313,5.279-4.768,9.483c2.481,6.753,11.42,11.145,18.307,8.995
		c4.759-1.485,6.708-5.931,4.477-10.384C42.296,112.734,37.426,110.468,31.259,109.889z M66.674,139.973
		c3.724-0.1,5.169-0.638,7.167-1.412c5.554-2.149,6.397-7.479,1.933-11.421c-4.315-3.811-11.771-4.475-16.643-1.483
		c-3.903,2.397-4.567,6.777-1.389,10.048C60.371,138.411,62.823,139.602,66.674,139.973z M50.349,159.797
		c0.799-0.142,2.167-0.262,3.46-0.639c4.35-1.268,6.17-5.63,4.039-9.511c-2.887-5.257-12.123-8.108-17.468-5.392
		c-4.356,2.214-5.256,6.574-2.113,10.357C41.258,158.214,45.247,159.617,50.349,159.797z M104.157,118.671
		c-4.904,0.385-9.014,2.5-11.373,7.321c-1.597,3.264-0.176,6.674,3.216,8.013c4.411,1.742,10.473-0.287,13.738-4.657
		c1.574-2.108,2.522-4.412,1.287-7.028C109.718,119.555,107.237,118.816,104.157,118.671z M82.916,160.415
		c1.915,0.001,5.04-0.695,7.458-3.265c2.238-2.379,2.231-5.048,0.013-7.447c-4.197-4.539-13.62-4.498-17.764,0.078
		c-1.839,2.031-2.114,4.008-0.646,6.308C74.183,159.54,77.551,160.626,82.916,160.415z M114.005,150.197
		c4.169-0.309,8.102-1.873,10.502-5.608c3.038-4.729,0.655-9.699-4.859-9.999c-5.064-0.276-9.134,1.845-11.857,6.157
		c-1.893,2.998-1.669,5.986,0.713,7.704C109.534,149.194,111.542,150.355,114.005,150.197z M145.84,115.739
		c-0.056-5.08-3.891-8.367-8.154-6.988c-4.106,1.328-7.226,5.516-7.342,9.857c-0.13,4.845,3.857,8.24,8.207,6.987
		C142.544,124.446,145.886,119.926,145.84,115.739z M130.89,106.225c0.156-5.063-4.104-8.816-8.007-7.529
		c-4.773,1.574-7.849,6.402-7.278,11.425c0.518,4.559,5.102,7.118,9.208,5.071C128.677,113.266,130.568,110,130.89,106.225z
		 M121.791,61.029c0.016,1.745,1.486,3.898,4.037,5.345c2.287,1.297,4.85,0.487,6.087-1.845c1.558-2.937,0.718-5.537-1.177-7.947
		c-1.574-2.001-3.744-2.73-5.757-2.028C122.987,55.25,121.805,57.18,121.791,61.029z M135.546,83.641
		c0.141-2.978-2.271-5.828-5.001-5.909c-2.731-0.081-5.41,2.892-5.6,6.215c-0.19,3.309,2.249,6.43,5.109,6.538
		C133.078,90.6,135.351,87.767,135.546,83.641z M149.45,86.671c0.077-3.36-1.614-5.991-3.886-6.661
		c-2.03-0.599-3.931,0.165-5.105,2.299c-0.573,1.042-0.977,2.259-1.12,3.438c-0.324,2.672,1.575,5.658,3.822,6.327
		c1.991,0.592,4.372-0.645,5.595-3.066C149.202,88.125,149.333,87.084,149.45,86.671z M147.193,64.41
		c-0.027-0.232-0.039-0.852-0.175-1.442c-0.504-2.186-2.594-4.161-4.597-4.394c-2.057-0.239-3.468,0.818-4.233,2.531
		c-0.942,2.11-0.642,4.242,0.637,6.208c1.467,2.255,3.49,3.217,5.455,2.571C146.12,69.279,147.217,67.362,147.193,64.41z
		 M133.874,42.814c-0.029-3.062-1.98-5.452-4.401-5.392c-1.948,0.049-3.716,2.004-3.732,4.126c-0.021,2.866,2.259,5.423,4.776,5.355
		C132.459,46.85,133.896,45.099,133.874,42.814z"/>
</g>
<g>
	<path fill="#FFFFFF" d="M222.836,89.734c0-18.158,14.326-33.031,34.036-33.031s33.853,14.69,33.853,33.031
		c0,18.158-14.326,33.031-34.035,33.031S222.836,108.075,222.836,89.734z M276.033,89.734c0-10.95-8.029-20.074-19.344-20.074
		s-19.162,8.941-19.162,20.074c0,10.949,8.03,20.074,19.345,20.074C268.186,109.809,276.033,100.866,276.033,89.734z"/>
	<path fill="#FFFFFF" d="M298.566,89.734c0-18.158,13.688-33.031,33.306-33.031c12.044,0,18.797,4.562,24.728,10.401l-8.395,9.673
		c-4.927-4.472-9.125-7.117-16.424-7.117c-10.767,0-18.523,8.941-18.523,20.074c0,10.949,7.574,20.074,18.523,20.074
		c7.3,0,11.771-2.92,16.79-7.482l8.942,9.581c-6.57,7.026-13.87,10.858-26.188,10.858
		C312.527,122.766,298.566,108.258,298.566,89.734z"/>
	<path fill="#FFFFFF" d="M385.429,70.755h-19.436V57.798h52.923v12.957h-19.436v50.916h-14.052V70.755z"/>
	<path fill="#FFFFFF" d="M422.29,89.734c0-18.158,14.326-33.031,34.036-33.031s33.853,14.69,33.853,33.031
		c0,18.158-14.326,33.031-34.035,33.031S422.29,108.075,422.29,89.734z M475.487,89.734c0-10.95-8.029-20.074-19.344-20.074
		s-19.162,8.941-19.162,20.074c0,10.949,8.03,20.074,19.345,20.074C467.64,109.809,475.487,100.866,475.487,89.734z"/>
	<path fill="#FFFFFF" d="M498.02,89.734c0-18.158,13.688-33.031,33.306-33.031c12.044,0,18.797,4.562,24.728,10.401l-8.395,9.673
		c-4.927-4.472-9.125-7.117-16.424-7.117c-10.767,0-18.523,8.941-18.523,20.074c0,10.949,7.574,20.074,18.523,20.074
		c7.3,0,11.771-2.92,16.79-7.482l8.942,9.581c-6.57,7.026-13.87,10.858-26.188,10.858C511.981,122.766,498.02,108.258,498.02,89.734
		z"/>
	<path fill="#FFFFFF" d="M561.708,89.734c0-18.158,14.326-33.031,34.036-33.031c19.709,0,33.853,14.69,33.853,33.031
		c0,18.158-14.326,33.031-34.035,33.031C575.851,122.766,561.708,108.075,561.708,89.734z M614.905,89.734
		c0-10.95-8.03-20.074-19.345-20.074s-19.162,8.941-19.162,20.074c0,10.949,8.03,20.074,19.345,20.074
		C607.058,109.809,614.905,100.866,614.905,89.734z"/>
	<path fill="#FFFFFF" d="M640.267,57.798h12.957l29.929,39.327V57.798h13.87v63.873h-11.953l-30.934-40.605v40.605h-13.869V57.798z"
		/>
	<path fill="#FFFFFF" d="M725.396,70.755h-19.436V57.798h52.924v12.957h-19.437v50.916h-14.052V70.755z"/>
	<path fill="#FFFFFF" d="M757.238,109.17h12.136v12.501h-12.136V109.17z"/>
	<path fill="#FFFFFF" d="M777.313,89.734c0-18.158,13.596-33.031,32.94-33.031c11.771,0,18.888,4.105,25.002,9.945l-7.209,8.304
		c-5.109-4.745-10.585-7.938-17.885-7.938c-12.227,0-21.078,10.037-21.078,22.721c0,12.501,8.852,22.721,21.078,22.721
		c7.848,0,12.866-3.193,18.341-8.304l7.209,7.3c-6.661,6.935-13.961,11.314-25.914,11.314
		C791.182,122.766,777.313,108.258,777.313,89.734z"/>
	<path fill="#FFFFFF" d="M839.175,89.734c0-17.976,13.869-33.031,33.487-33.031s33.306,14.873,33.306,33.031
		c0,17.976-13.869,33.031-33.487,33.031C852.861,122.766,839.175,107.893,839.175,89.734z M894.197,89.734
		c0-12.41-9.034-22.721-21.717-22.721c-12.684,0-21.535,10.129-21.535,22.721c0,12.409,9.034,22.721,21.717,22.721
		C885.346,112.455,894.197,102.326,894.197,89.734z"/>
	<path fill="#FFFFFF" d="M914.083,57.798h11.954l19.436,30.203l19.436-30.203h11.953v63.873h-11.223V75.864l-20.166,30.112h-0.365
		l-19.983-29.93v45.624h-11.041V57.798z"/>
</g>
</svg>
